<mxfile host="Electron" modified="2024-04-26T19:07:32.127Z" agent="Mozilla/5.0 (Windows NT 10.0; Win64; x64) AppleWebKit/537.36 (KHTML, like Gecko) draw.io/24.2.5 Chrome/120.0.6099.109 Electron/28.1.0 Safari/537.36" etag="QGuKLxq_hM8dQK0He8aH" version="24.2.5" type="device">
  <diagram id="R2lEEEUBdFMjLlhIrx00" name="Page-1">
    <mxGraphModel dx="1434" dy="836" grid="1" gridSize="10" guides="1" tooltips="1" connect="1" arrows="1" fold="1" page="1" pageScale="1" pageWidth="850" pageHeight="1100" math="0" shadow="0" extFonts="Permanent Marker^https://fonts.googleapis.com/css?family=Permanent+Marker">
      <root>
        <mxCell id="0" />
        <mxCell id="1" parent="0" />
        <mxCell id="mSEk94hID1eBO2uNQYs_-1" value="&lt;span style=&quot;font-size: 12px; font-family: Arial, sans-serif; position: relative; top: 0.5pt;&quot;&gt;sales offices&lt;/span&gt;" style="rounded=0;whiteSpace=wrap;html=1;fontSize=12;" parent="1" vertex="1">
          <mxGeometry x="160" y="160" width="120" height="40" as="geometry" />
        </mxCell>
        <mxCell id="mSEk94hID1eBO2uNQYs_-2" value="&lt;b style=&quot;&quot;&gt;&lt;span style=&quot;font-family: Arial, sans-serif; position: relative; top: 0.5pt;&quot;&gt;&lt;font style=&quot;font-size: 20px;&quot;&gt;real estate firm&amp;nbsp;&lt;/font&gt;&lt;/span&gt;&lt;/b&gt;" style="text;html=1;align=center;verticalAlign=middle;resizable=0;points=[];autosize=1;strokeColor=none;fillColor=none;fontSize=12;" parent="1" vertex="1">
          <mxGeometry x="340" y="23" width="170" height="40" as="geometry" />
        </mxCell>
        <mxCell id="QlXE7pvtrm_SnEy_TRo3-1" value="&lt;span style=&quot;font-family: Arial, sans-serif; position: relative; top: 0.5pt;&quot;&gt;property&lt;/span&gt;" style="rounded=0;whiteSpace=wrap;html=1;fontSize=12;" parent="1" vertex="1">
          <mxGeometry x="620" y="480" width="100" height="40" as="geometry" />
        </mxCell>
        <mxCell id="QlXE7pvtrm_SnEy_TRo3-2" value="&lt;span style=&quot;font-family: Arial, sans-serif; position: relative; top: 0.5pt;&quot;&gt;employees&lt;/span&gt;" style="rounded=0;whiteSpace=wrap;html=1;fontSize=12;" parent="1" vertex="1">
          <mxGeometry x="570" y="140" width="100" height="50" as="geometry" />
        </mxCell>
        <mxCell id="QlXE7pvtrm_SnEy_TRo3-3" value="&lt;span style=&quot;font-family: Arial, sans-serif; position: relative; top: 0.5pt;&quot;&gt;&lt;font style=&quot;font-size: 12px;&quot;&gt;owners&amp;nbsp;&lt;/font&gt;&lt;/span&gt;" style="rounded=0;whiteSpace=wrap;html=1;fontSize=12;" parent="1" vertex="1">
          <mxGeometry x="130" y="480" width="120" height="60" as="geometry" />
        </mxCell>
        <mxCell id="QlXE7pvtrm_SnEy_TRo3-4" value="&lt;span style=&quot;font-family: Arial, sans-serif; position: relative; top: 0.5pt;&quot;&gt;&lt;font style=&quot;font-size: 12px;&quot;&gt;percent owned&lt;/font&gt;&lt;/span&gt;" style="ellipse;whiteSpace=wrap;html=1;fontSize=12;" parent="1" vertex="1">
          <mxGeometry x="380" y="620" width="100" height="50" as="geometry" />
        </mxCell>
        <mxCell id="QlXE7pvtrm_SnEy_TRo3-5" value="&lt;span style=&quot;font-family: Arial, sans-serif; position: relative; top: 0.5pt;&quot;&gt;&lt;font style=&quot;font-size: 12px;&quot;&gt;Owner_Name&lt;/font&gt;&lt;/span&gt;" style="ellipse;whiteSpace=wrap;html=1;fontSize=12;" parent="1" vertex="1">
          <mxGeometry x="140" y="585" width="100" height="60" as="geometry" />
        </mxCell>
        <mxCell id="QlXE7pvtrm_SnEy_TRo3-6" value="&lt;span style=&quot;font-family: Arial, sans-serif; position: relative; top: 0.5pt;&quot;&gt;&lt;font style=&quot;font-size: 12px;&quot;&gt;Owner_ID&lt;/font&gt;&lt;/span&gt;&lt;hr&gt;" style="ellipse;whiteSpace=wrap;html=1;fontSize=12;" parent="1" vertex="1">
          <mxGeometry x="145" y="380" width="90" height="50" as="geometry" />
        </mxCell>
        <mxCell id="QlXE7pvtrm_SnEy_TRo3-7" value="&lt;span style=&quot;font-family: Arial, sans-serif; position: relative; top: 0.5pt;&quot;&gt;&lt;font style=&quot;font-size: 12px;&quot;&gt;Zip_Code&lt;/font&gt;&lt;/span&gt;" style="ellipse;whiteSpace=wrap;html=1;fontSize=12;" parent="1" vertex="1">
          <mxGeometry x="760" y="570" width="80" height="40" as="geometry" />
        </mxCell>
        <mxCell id="QlXE7pvtrm_SnEy_TRo3-8" value="&lt;span style=&quot;font-family: Arial, sans-serif; position: relative; top: 0.5pt;&quot;&gt;&lt;font style=&quot;font-size: 12px;&quot;&gt;State&lt;/font&gt;&lt;/span&gt;" style="ellipse;whiteSpace=wrap;html=1;fontSize=12;" parent="1" vertex="1">
          <mxGeometry x="730" y="630" width="80" height="40" as="geometry" />
        </mxCell>
        <mxCell id="QlXE7pvtrm_SnEy_TRo3-9" value="&lt;span style=&quot;font-family: Arial, sans-serif; position: relative; top: 0.5pt;&quot;&gt;&lt;font style=&quot;font-size: 12px;&quot;&gt;City&lt;/font&gt;&lt;/span&gt;" style="ellipse;whiteSpace=wrap;html=1;fontSize=12;" parent="1" vertex="1">
          <mxGeometry x="650" y="650" width="80" height="40" as="geometry" />
        </mxCell>
        <mxCell id="QlXE7pvtrm_SnEy_TRo3-10" value="&lt;span style=&quot;font-family: Arial, sans-serif; position: relative; top: 0.5pt;&quot;&gt;&lt;font style=&quot;font-size: 12px;&quot;&gt;Address&lt;/font&gt;&lt;/span&gt;" style="ellipse;whiteSpace=wrap;html=1;fontSize=12;" parent="1" vertex="1">
          <mxGeometry x="560" y="645" width="85" height="50" as="geometry" />
        </mxCell>
        <mxCell id="QlXE7pvtrm_SnEy_TRo3-11" value="&lt;span style=&quot;font-family: Arial, sans-serif; position: relative; top: 0.5pt;&quot;&gt;Location&lt;/span&gt;" style="ellipse;whiteSpace=wrap;html=1;fontSize=12;" parent="1" vertex="1">
          <mxGeometry x="625" y="560" width="90" height="50" as="geometry" />
        </mxCell>
        <mxCell id="QlXE7pvtrm_SnEy_TRo3-12" value="&lt;span style=&quot;font-family: Arial, sans-serif; position: relative; top: 0.5pt;&quot;&gt;&lt;font style=&quot;font-size: 12px;&quot;&gt;Property_ID&lt;/font&gt;&lt;/span&gt;&lt;hr&gt;" style="ellipse;whiteSpace=wrap;html=1;fontSize=12;" parent="1" vertex="1">
          <mxGeometry x="627.5" y="380" width="85" height="50" as="geometry" />
        </mxCell>
        <mxCell id="QlXE7pvtrm_SnEy_TRo3-13" value="&lt;span style=&quot;font-family: Arial, sans-serif; position: relative; top: 0.5pt;&quot;&gt;Employee_Name&lt;/span&gt;" style="ellipse;whiteSpace=wrap;html=1;fontSize=12;" parent="1" vertex="1">
          <mxGeometry x="700" y="130" width="110" height="70" as="geometry" />
        </mxCell>
        <mxCell id="QlXE7pvtrm_SnEy_TRo3-14" value="&lt;span style=&quot;font-family: Arial, sans-serif; position: relative; top: 0.5pt;&quot;&gt;&lt;font style=&quot;font-size: 12px;&quot;&gt;Employee_ID&lt;/font&gt;&lt;/span&gt;&lt;hr&gt;" style="ellipse;whiteSpace=wrap;html=1;fontSize=12;" parent="1" vertex="1">
          <mxGeometry x="680" y="40" width="100" height="60" as="geometry" />
        </mxCell>
        <mxCell id="QlXE7pvtrm_SnEy_TRo3-15" value="&lt;span style=&quot;font-size: 12px; font-family: Arial, sans-serif; position: relative; top: 0.5pt;&quot;&gt;Location&lt;/span&gt;" style="ellipse;whiteSpace=wrap;html=1;fontSize=12;" parent="1" vertex="1">
          <mxGeometry x="10" y="200" width="100" height="60" as="geometry" />
        </mxCell>
        <mxCell id="QlXE7pvtrm_SnEy_TRo3-16" value="&lt;span style=&quot;font-size: 12px; font-family: Arial, sans-serif; position: relative; top: 0.5pt;&quot;&gt;Office_Number&lt;/span&gt;&lt;hr&gt;" style="ellipse;whiteSpace=wrap;html=1;fontSize=12;" parent="1" vertex="1">
          <mxGeometry x="10" y="120" width="100" height="60" as="geometry" />
        </mxCell>
        <mxCell id="QlXE7pvtrm_SnEy_TRo3-17" value="&lt;span style=&quot;font-family: Arial, sans-serif; position: relative; top: 0.5pt;&quot;&gt;&lt;font style=&quot;font-size: 12px;&quot;&gt;listed&amp;nbsp;&lt;/font&gt;&lt;/span&gt;" style="rhombus;whiteSpace=wrap;html=1;fontSize=12;double=0;" parent="1" vertex="1">
          <mxGeometry x="380" y="300" width="80" height="80" as="geometry" />
        </mxCell>
        <mxCell id="QlXE7pvtrm_SnEy_TRo3-18" value="&lt;span style=&quot;font-family: Arial, sans-serif; position: relative; top: 0.5pt;&quot;&gt;manage&lt;/span&gt;" style="rhombus;whiteSpace=wrap;html=1;fontSize=12;perimeterSpacing=0;double=0;" parent="1" vertex="1">
          <mxGeometry x="380" y="120" width="80" height="80" as="geometry" />
        </mxCell>
        <mxCell id="QlXE7pvtrm_SnEy_TRo3-19" value="own" style="rhombus;whiteSpace=wrap;html=1;fontSize=12;" parent="1" vertex="1">
          <mxGeometry x="390" y="470" width="80" height="80" as="geometry" />
        </mxCell>
        <mxCell id="QlXE7pvtrm_SnEy_TRo3-20" value="" style="endArrow=none;html=1;rounded=0;entryX=0;entryY=0.5;entryDx=0;entryDy=0;exitX=1;exitY=0.5;exitDx=0;exitDy=0;" parent="1" source="QlXE7pvtrm_SnEy_TRo3-15" target="mSEk94hID1eBO2uNQYs_-1" edge="1">
          <mxGeometry width="50" height="50" relative="1" as="geometry">
            <mxPoint x="400" y="450" as="sourcePoint" />
            <mxPoint x="450" y="400" as="targetPoint" />
          </mxGeometry>
        </mxCell>
        <mxCell id="QlXE7pvtrm_SnEy_TRo3-21" value="" style="endArrow=none;html=1;rounded=0;entryX=0;entryY=0.5;entryDx=0;entryDy=0;exitX=0.97;exitY=0.633;exitDx=0;exitDy=0;exitPerimeter=0;" parent="1" source="QlXE7pvtrm_SnEy_TRo3-16" target="mSEk94hID1eBO2uNQYs_-1" edge="1">
          <mxGeometry width="50" height="50" relative="1" as="geometry">
            <mxPoint x="400" y="450" as="sourcePoint" />
            <mxPoint x="450" y="400" as="targetPoint" />
          </mxGeometry>
        </mxCell>
        <mxCell id="QlXE7pvtrm_SnEy_TRo3-23" value="" style="endArrow=none;html=1;rounded=0;entryX=0;entryY=0.5;entryDx=0;entryDy=0;exitX=1;exitY=0.5;exitDx=0;exitDy=0;" parent="1" source="QlXE7pvtrm_SnEy_TRo3-2" target="QlXE7pvtrm_SnEy_TRo3-13" edge="1">
          <mxGeometry width="50" height="50" relative="1" as="geometry">
            <mxPoint x="350" y="460" as="sourcePoint" />
            <mxPoint x="400" y="410" as="targetPoint" />
          </mxGeometry>
        </mxCell>
        <mxCell id="QlXE7pvtrm_SnEy_TRo3-24" value="" style="endArrow=none;html=1;rounded=0;entryX=0;entryY=1;entryDx=0;entryDy=0;exitX=0.5;exitY=0;exitDx=0;exitDy=0;" parent="1" source="QlXE7pvtrm_SnEy_TRo3-2" target="QlXE7pvtrm_SnEy_TRo3-14" edge="1">
          <mxGeometry width="50" height="50" relative="1" as="geometry">
            <mxPoint x="350" y="460" as="sourcePoint" />
            <mxPoint x="400" y="410" as="targetPoint" />
          </mxGeometry>
        </mxCell>
        <mxCell id="QlXE7pvtrm_SnEy_TRo3-25" value="" style="endArrow=none;html=1;rounded=0;entryX=0;entryY=0.5;entryDx=0;entryDy=0;exitX=1;exitY=0.5;exitDx=0;exitDy=0;" parent="1" source="mSEk94hID1eBO2uNQYs_-1" target="QlXE7pvtrm_SnEy_TRo3-18" edge="1">
          <mxGeometry width="50" height="50" relative="1" as="geometry">
            <mxPoint x="400" y="460" as="sourcePoint" />
            <mxPoint x="450" y="410" as="targetPoint" />
          </mxGeometry>
        </mxCell>
        <mxCell id="QlXE7pvtrm_SnEy_TRo3-30" value="1" style="edgeLabel;html=1;align=center;verticalAlign=middle;resizable=0;points=[];" parent="QlXE7pvtrm_SnEy_TRo3-25" vertex="1" connectable="0">
          <mxGeometry x="-0.7692" y="-2" relative="1" as="geometry">
            <mxPoint y="-10" as="offset" />
          </mxGeometry>
        </mxCell>
        <mxCell id="QlXE7pvtrm_SnEy_TRo3-28" value="" style="shape=link;html=1;rounded=0;entryX=0;entryY=0.5;entryDx=0;entryDy=0;exitX=1;exitY=0.5;exitDx=0;exitDy=0;" parent="1" source="QlXE7pvtrm_SnEy_TRo3-18" target="QlXE7pvtrm_SnEy_TRo3-2" edge="1">
          <mxGeometry width="100" relative="1" as="geometry">
            <mxPoint x="370" y="440" as="sourcePoint" />
            <mxPoint x="470" y="440" as="targetPoint" />
          </mxGeometry>
        </mxCell>
        <mxCell id="QlXE7pvtrm_SnEy_TRo3-29" value="1" style="edgeLabel;html=1;align=center;verticalAlign=middle;resizable=0;points=[];" parent="QlXE7pvtrm_SnEy_TRo3-28" vertex="1" connectable="0">
          <mxGeometry x="0.6363" relative="1" as="geometry">
            <mxPoint y="-14" as="offset" />
          </mxGeometry>
        </mxCell>
        <mxCell id="QlXE7pvtrm_SnEy_TRo3-31" value="" style="endArrow=none;html=1;rounded=0;exitX=0.5;exitY=0;exitDx=0;exitDy=0;entryX=0.5;entryY=1;entryDx=0;entryDy=0;" parent="1" source="QlXE7pvtrm_SnEy_TRo3-4" target="QlXE7pvtrm_SnEy_TRo3-19" edge="1">
          <mxGeometry width="50" height="50" relative="1" as="geometry">
            <mxPoint x="400" y="380" as="sourcePoint" />
            <mxPoint x="450" y="330" as="targetPoint" />
          </mxGeometry>
        </mxCell>
        <mxCell id="QlXE7pvtrm_SnEy_TRo3-32" value="" style="endArrow=none;html=1;rounded=0;exitX=1;exitY=0.5;exitDx=0;exitDy=0;entryX=0;entryY=0.5;entryDx=0;entryDy=0;" parent="1" source="QlXE7pvtrm_SnEy_TRo3-3" target="QlXE7pvtrm_SnEy_TRo3-19" edge="1">
          <mxGeometry width="50" height="50" relative="1" as="geometry">
            <mxPoint x="400" y="380" as="sourcePoint" />
            <mxPoint x="450" y="330" as="targetPoint" />
          </mxGeometry>
        </mxCell>
        <mxCell id="QlXE7pvtrm_SnEy_TRo3-47" value="M" style="edgeLabel;html=1;align=center;verticalAlign=middle;resizable=0;points=[];" parent="QlXE7pvtrm_SnEy_TRo3-32" vertex="1" connectable="0">
          <mxGeometry x="-0.7429" y="-2" relative="1" as="geometry">
            <mxPoint as="offset" />
          </mxGeometry>
        </mxCell>
        <mxCell id="QlXE7pvtrm_SnEy_TRo3-33" value="" style="endArrow=none;html=1;rounded=0;exitX=0;exitY=0.75;exitDx=0;exitDy=0;" parent="1" source="QlXE7pvtrm_SnEy_TRo3-1" target="QlXE7pvtrm_SnEy_TRo3-19" edge="1">
          <mxGeometry width="50" height="50" relative="1" as="geometry">
            <mxPoint x="400" y="380" as="sourcePoint" />
            <mxPoint x="450" y="330" as="targetPoint" />
          </mxGeometry>
        </mxCell>
        <mxCell id="QlXE7pvtrm_SnEy_TRo3-50" value="M" style="edgeLabel;html=1;align=center;verticalAlign=middle;resizable=0;points=[];" parent="QlXE7pvtrm_SnEy_TRo3-33" vertex="1" connectable="0">
          <mxGeometry x="-0.56" y="4" relative="1" as="geometry">
            <mxPoint as="offset" />
          </mxGeometry>
        </mxCell>
        <mxCell id="QlXE7pvtrm_SnEy_TRo3-34" value="" style="endArrow=none;html=1;rounded=0;exitX=1;exitY=1;exitDx=0;exitDy=0;entryX=0;entryY=0;entryDx=0;entryDy=0;" parent="1" source="mSEk94hID1eBO2uNQYs_-1" target="QlXE7pvtrm_SnEy_TRo3-17" edge="1">
          <mxGeometry width="50" height="50" relative="1" as="geometry">
            <mxPoint x="400" y="380" as="sourcePoint" />
            <mxPoint x="450" y="360" as="targetPoint" />
          </mxGeometry>
        </mxCell>
        <mxCell id="QlXE7pvtrm_SnEy_TRo3-46" value="1" style="edgeLabel;html=1;align=center;verticalAlign=middle;resizable=0;points=[];" parent="QlXE7pvtrm_SnEy_TRo3-34" vertex="1" connectable="0">
          <mxGeometry x="-0.775" y="-2" relative="1" as="geometry">
            <mxPoint as="offset" />
          </mxGeometry>
        </mxCell>
        <mxCell id="QlXE7pvtrm_SnEy_TRo3-35" value="" style="endArrow=none;html=1;rounded=0;exitX=0;exitY=0.5;exitDx=0;exitDy=0;entryX=1.011;entryY=0.38;entryDx=0;entryDy=0;entryPerimeter=0;" parent="1" source="QlXE7pvtrm_SnEy_TRo3-7" target="QlXE7pvtrm_SnEy_TRo3-11" edge="1">
          <mxGeometry width="50" height="50" relative="1" as="geometry">
            <mxPoint x="400" y="380" as="sourcePoint" />
            <mxPoint x="450" y="330" as="targetPoint" />
          </mxGeometry>
        </mxCell>
        <mxCell id="QlXE7pvtrm_SnEy_TRo3-36" value="" style="endArrow=none;html=1;rounded=0;exitX=0;exitY=0;exitDx=0;exitDy=0;entryX=1;entryY=1;entryDx=0;entryDy=0;" parent="1" source="QlXE7pvtrm_SnEy_TRo3-8" target="QlXE7pvtrm_SnEy_TRo3-11" edge="1">
          <mxGeometry width="50" height="50" relative="1" as="geometry">
            <mxPoint x="400" y="380" as="sourcePoint" />
            <mxPoint x="450" y="330" as="targetPoint" />
          </mxGeometry>
        </mxCell>
        <mxCell id="QlXE7pvtrm_SnEy_TRo3-37" value="" style="endArrow=none;html=1;rounded=0;exitX=0.5;exitY=0;exitDx=0;exitDy=0;entryX=0.5;entryY=1;entryDx=0;entryDy=0;" parent="1" source="QlXE7pvtrm_SnEy_TRo3-9" target="QlXE7pvtrm_SnEy_TRo3-11" edge="1">
          <mxGeometry width="50" height="50" relative="1" as="geometry">
            <mxPoint x="400" y="380" as="sourcePoint" />
            <mxPoint x="450" y="330" as="targetPoint" />
          </mxGeometry>
        </mxCell>
        <mxCell id="QlXE7pvtrm_SnEy_TRo3-38" value="" style="endArrow=none;html=1;rounded=0;exitX=0.5;exitY=0;exitDx=0;exitDy=0;entryX=0;entryY=1;entryDx=0;entryDy=0;" parent="1" source="QlXE7pvtrm_SnEy_TRo3-10" target="QlXE7pvtrm_SnEy_TRo3-11" edge="1">
          <mxGeometry width="50" height="50" relative="1" as="geometry">
            <mxPoint x="400" y="380" as="sourcePoint" />
            <mxPoint x="450" y="330" as="targetPoint" />
          </mxGeometry>
        </mxCell>
        <mxCell id="QlXE7pvtrm_SnEy_TRo3-39" value="" style="endArrow=none;html=1;rounded=0;exitX=0.5;exitY=0;exitDx=0;exitDy=0;exitPerimeter=0;entryX=0.5;entryY=1;entryDx=0;entryDy=0;" parent="1" source="QlXE7pvtrm_SnEy_TRo3-11" target="QlXE7pvtrm_SnEy_TRo3-1" edge="1">
          <mxGeometry width="50" height="50" relative="1" as="geometry">
            <mxPoint x="400" y="380" as="sourcePoint" />
            <mxPoint x="450" y="330" as="targetPoint" />
          </mxGeometry>
        </mxCell>
        <mxCell id="QlXE7pvtrm_SnEy_TRo3-40" value="" style="endArrow=none;html=1;rounded=0;entryX=0.5;entryY=0;entryDx=0;entryDy=0;exitX=0.5;exitY=1;exitDx=0;exitDy=0;" parent="1" source="QlXE7pvtrm_SnEy_TRo3-12" target="QlXE7pvtrm_SnEy_TRo3-1" edge="1">
          <mxGeometry width="50" height="50" relative="1" as="geometry">
            <mxPoint x="400" y="380" as="sourcePoint" />
            <mxPoint x="450" y="330" as="targetPoint" />
          </mxGeometry>
        </mxCell>
        <mxCell id="QlXE7pvtrm_SnEy_TRo3-43" value="" style="shape=link;html=1;rounded=0;entryX=0;entryY=0.25;entryDx=0;entryDy=0;exitX=1;exitY=1;exitDx=0;exitDy=0;" parent="1" source="QlXE7pvtrm_SnEy_TRo3-17" target="QlXE7pvtrm_SnEy_TRo3-1" edge="1">
          <mxGeometry width="100" relative="1" as="geometry">
            <mxPoint x="370" y="450" as="sourcePoint" />
            <mxPoint x="470" y="450" as="targetPoint" />
          </mxGeometry>
        </mxCell>
        <mxCell id="QlXE7pvtrm_SnEy_TRo3-44" value="M" style="edgeLabel;html=1;align=center;verticalAlign=middle;resizable=0;points=[];" parent="QlXE7pvtrm_SnEy_TRo3-43" vertex="1" connectable="0">
          <mxGeometry x="0.8649" relative="1" as="geometry">
            <mxPoint as="offset" />
          </mxGeometry>
        </mxCell>
        <mxCell id="QlXE7pvtrm_SnEy_TRo3-48" value="" style="endArrow=none;html=1;rounded=0;exitX=0.5;exitY=0;exitDx=0;exitDy=0;entryX=0.5;entryY=1;entryDx=0;entryDy=0;" parent="1" source="QlXE7pvtrm_SnEy_TRo3-5" target="QlXE7pvtrm_SnEy_TRo3-3" edge="1">
          <mxGeometry width="50" height="50" relative="1" as="geometry">
            <mxPoint x="400" y="470" as="sourcePoint" />
            <mxPoint x="450" y="420" as="targetPoint" />
          </mxGeometry>
        </mxCell>
        <mxCell id="QlXE7pvtrm_SnEy_TRo3-49" value="" style="endArrow=none;html=1;rounded=0;exitX=0.5;exitY=0;exitDx=0;exitDy=0;entryX=0.5;entryY=1;entryDx=0;entryDy=0;" parent="1" source="QlXE7pvtrm_SnEy_TRo3-3" target="QlXE7pvtrm_SnEy_TRo3-6" edge="1">
          <mxGeometry width="50" height="50" relative="1" as="geometry">
            <mxPoint x="400" y="470" as="sourcePoint" />
            <mxPoint x="450" y="420" as="targetPoint" />
          </mxGeometry>
        </mxCell>
      </root>
    </mxGraphModel>
  </diagram>
</mxfile>
